<mxfile host="app.diagrams.net" modified="2020-11-19T12:22:57.745Z" agent="5.0 (Windows NT 10.0; Win64; x64) AppleWebKit/537.36 (KHTML, like Gecko) Chrome/87.0.4280.66 Safari/537.36" etag="yMQExjtGnI9FFZZtry0y" version="13.10.0" type="github">
  <diagram id="M9coeR1W1_DL5eKCYzfY" name="Page-1">
    <mxGraphModel dx="813" dy="421" grid="1" gridSize="10" guides="1" tooltips="1" connect="1" arrows="1" fold="1" page="1" pageScale="1" pageWidth="827" pageHeight="1169" math="0" shadow="0">
      <root>
        <mxCell id="0" />
        <mxCell id="1" parent="0" />
        <mxCell id="1xEakTD8_yOAVGolaAwC-1" value="" style="endArrow=classic;html=1;" parent="1" edge="1">
          <mxGeometry width="50" height="50" relative="1" as="geometry">
            <mxPoint x="140" y="140" as="sourcePoint" />
            <mxPoint x="210" y="110" as="targetPoint" />
          </mxGeometry>
        </mxCell>
        <mxCell id="1xEakTD8_yOAVGolaAwC-2" value="" style="endArrow=classic;html=1;" parent="1" edge="1">
          <mxGeometry width="50" height="50" relative="1" as="geometry">
            <mxPoint x="140" y="140" as="sourcePoint" />
            <mxPoint x="210" y="170" as="targetPoint" />
          </mxGeometry>
        </mxCell>
        <mxCell id="1xEakTD8_yOAVGolaAwC-3" value="&lt;font style=&quot;font-size: 10px&quot;&gt;p&lt;/font&gt;" style="text;html=1;align=center;verticalAlign=middle;resizable=0;points=[];autosize=1;" parent="1" vertex="1">
          <mxGeometry x="155" y="100" width="20" height="20" as="geometry" />
        </mxCell>
        <mxCell id="1xEakTD8_yOAVGolaAwC-5" value="&lt;font style=&quot;font-size: 10px&quot;&gt;1-p&lt;/font&gt;" style="text;html=1;align=center;verticalAlign=middle;resizable=0;points=[];autosize=1;" parent="1" vertex="1">
          <mxGeometry x="150" y="160" width="30" height="20" as="geometry" />
        </mxCell>
        <mxCell id="1xEakTD8_yOAVGolaAwC-6" value="B&amp;nbsp;" style="text;html=1;strokeColor=none;fillColor=none;align=center;verticalAlign=middle;whiteSpace=wrap;rounded=0;" parent="1" vertex="1">
          <mxGeometry x="200" y="100" width="40" height="20" as="geometry" />
        </mxCell>
        <mxCell id="1xEakTD8_yOAVGolaAwC-7" value="B" style="text;html=1;strokeColor=none;fillColor=none;align=center;verticalAlign=middle;whiteSpace=wrap;rounded=0;" parent="1" vertex="1">
          <mxGeometry x="200" y="160" width="40" height="20" as="geometry" />
        </mxCell>
        <mxCell id="1xEakTD8_yOAVGolaAwC-8" value="" style="endArrow=classic;html=1;" parent="1" edge="1">
          <mxGeometry width="50" height="50" relative="1" as="geometry">
            <mxPoint x="230" y="110.00000000000006" as="sourcePoint" />
            <mxPoint x="300" y="80" as="targetPoint" />
          </mxGeometry>
        </mxCell>
        <mxCell id="1xEakTD8_yOAVGolaAwC-9" value="" style="endArrow=classic;html=1;" parent="1" edge="1">
          <mxGeometry width="50" height="50" relative="1" as="geometry">
            <mxPoint x="230" y="110.00000000000006" as="sourcePoint" />
            <mxPoint x="300" y="130" as="targetPoint" />
          </mxGeometry>
        </mxCell>
        <mxCell id="1xEakTD8_yOAVGolaAwC-10" value="" style="endArrow=classic;html=1;" parent="1" edge="1">
          <mxGeometry width="50" height="50" relative="1" as="geometry">
            <mxPoint x="230" y="170.00000000000006" as="sourcePoint" />
            <mxPoint x="300" y="200" as="targetPoint" />
          </mxGeometry>
        </mxCell>
        <mxCell id="1xEakTD8_yOAVGolaAwC-11" value="" style="endArrow=classic;html=1;" parent="1" edge="1">
          <mxGeometry width="50" height="50" relative="1" as="geometry">
            <mxPoint x="230" y="170.00000000000006" as="sourcePoint" />
            <mxPoint x="300" y="150" as="targetPoint" />
          </mxGeometry>
        </mxCell>
        <mxCell id="1xEakTD8_yOAVGolaAwC-12" value="A" style="text;html=1;align=center;verticalAlign=middle;resizable=0;points=[];autosize=1;" parent="1" vertex="1">
          <mxGeometry x="300" y="70" width="20" height="20" as="geometry" />
        </mxCell>
        <mxCell id="1xEakTD8_yOAVGolaAwC-13" value="A" style="text;html=1;align=center;verticalAlign=middle;resizable=0;points=[];autosize=1;" parent="1" vertex="1">
          <mxGeometry x="300" y="140" width="20" height="20" as="geometry" />
        </mxCell>
        <mxCell id="1xEakTD8_yOAVGolaAwC-14" value="A" style="text;html=1;align=center;verticalAlign=middle;resizable=0;points=[];autosize=1;" parent="1" vertex="1">
          <mxGeometry x="300" y="115" width="20" height="20" as="geometry" />
        </mxCell>
        <mxCell id="1xEakTD8_yOAVGolaAwC-15" value="&lt;font style=&quot;font-size: 12px&quot;&gt;A&lt;/font&gt;" style="text;html=1;align=center;verticalAlign=middle;resizable=0;points=[];autosize=1;" parent="1" vertex="1">
          <mxGeometry x="300" y="185" width="20" height="20" as="geometry" />
        </mxCell>
        <mxCell id="1xEakTD8_yOAVGolaAwC-16" value="&lt;font style=&quot;font-size: 10px&quot;&gt;q1&lt;/font&gt;" style="text;html=1;align=center;verticalAlign=middle;resizable=0;points=[];autosize=1;" parent="1" vertex="1">
          <mxGeometry x="240" y="70" width="30" height="20" as="geometry" />
        </mxCell>
        <mxCell id="1xEakTD8_yOAVGolaAwC-17" value="&lt;font style=&quot;font-size: 10px&quot;&gt;1-q1&lt;/font&gt;" style="text;html=1;align=center;verticalAlign=middle;resizable=0;points=[];autosize=1;" parent="1" vertex="1">
          <mxGeometry x="235" y="120" width="40" height="20" as="geometry" />
        </mxCell>
        <mxCell id="1xEakTD8_yOAVGolaAwC-18" value="&lt;font style=&quot;font-size: 10px&quot;&gt;1-q2&lt;br&gt;&lt;/font&gt;" style="text;html=1;align=center;verticalAlign=middle;resizable=0;points=[];autosize=1;" parent="1" vertex="1">
          <mxGeometry x="235" y="180" width="40" height="20" as="geometry" />
        </mxCell>
        <mxCell id="1xEakTD8_yOAVGolaAwC-19" value="&lt;font style=&quot;font-size: 10px&quot;&gt;q2&lt;/font&gt;" style="text;html=1;align=center;verticalAlign=middle;resizable=0;points=[];autosize=1;" parent="1" vertex="1">
          <mxGeometry x="240" y="140" width="30" height="20" as="geometry" />
        </mxCell>
        <mxCell id="1xEakTD8_yOAVGolaAwC-20" value="pq1" style="text;html=1;align=center;verticalAlign=middle;resizable=0;points=[];autosize=1;" parent="1" vertex="1">
          <mxGeometry x="330" y="70" width="40" height="20" as="geometry" />
        </mxCell>
        <mxCell id="1xEakTD8_yOAVGolaAwC-21" value="p(1-q1)" style="text;html=1;align=center;verticalAlign=middle;resizable=0;points=[];autosize=1;" parent="1" vertex="1">
          <mxGeometry x="330" y="120" width="50" height="20" as="geometry" />
        </mxCell>
        <mxCell id="1xEakTD8_yOAVGolaAwC-22" value="(1-p)q2" style="text;html=1;align=center;verticalAlign=middle;resizable=0;points=[];autosize=1;" parent="1" vertex="1">
          <mxGeometry x="330" y="140" width="50" height="20" as="geometry" />
        </mxCell>
        <mxCell id="1xEakTD8_yOAVGolaAwC-23" value="(1-p)(1-q2)" style="text;html=1;align=center;verticalAlign=middle;resizable=0;points=[];autosize=1;" parent="1" vertex="1">
          <mxGeometry x="330" y="190" width="70" height="20" as="geometry" />
        </mxCell>
        <mxCell id="OGxI5YrdRo1SzFC3SW5r-1" value="" style="shape=curlyBracket;whiteSpace=wrap;html=1;rounded=1;direction=north;size=0.5;" vertex="1" parent="1">
          <mxGeometry x="230" y="220" width="85" height="10" as="geometry" />
        </mxCell>
        <mxCell id="OGxI5YrdRo1SzFC3SW5r-2" value="bedingte Wahrs." style="text;html=1;align=center;verticalAlign=middle;resizable=0;points=[];autosize=1;" vertex="1" parent="1">
          <mxGeometry x="222.5" y="230" width="100" height="20" as="geometry" />
        </mxCell>
        <mxCell id="OGxI5YrdRo1SzFC3SW5r-3" value="" style="shape=curlyBracket;whiteSpace=wrap;html=1;rounded=1;direction=west;size=0.5;" vertex="1" parent="1">
          <mxGeometry x="414" y="140" width="16" height="70" as="geometry" />
        </mxCell>
        <mxCell id="OGxI5YrdRo1SzFC3SW5r-5" value="" style="shape=curlyBracket;whiteSpace=wrap;html=1;rounded=1;direction=west;size=0.5;" vertex="1" parent="1">
          <mxGeometry x="414" y="70" width="16" height="70" as="geometry" />
        </mxCell>
        <mxCell id="OGxI5YrdRo1SzFC3SW5r-6" value="p" style="text;html=1;align=center;verticalAlign=middle;resizable=0;points=[];autosize=1;" vertex="1" parent="1">
          <mxGeometry x="430" y="95" width="20" height="20" as="geometry" />
        </mxCell>
        <mxCell id="OGxI5YrdRo1SzFC3SW5r-7" value="1-p" style="text;html=1;align=center;verticalAlign=middle;resizable=0;points=[];autosize=1;" vertex="1" parent="1">
          <mxGeometry x="425" y="165" width="30" height="20" as="geometry" />
        </mxCell>
        <mxCell id="OGxI5YrdRo1SzFC3SW5r-8" value="" style="shape=curlyBracket;whiteSpace=wrap;html=1;rounded=1;direction=west;size=0.5;" vertex="1" parent="1">
          <mxGeometry x="450" y="70" width="30" height="140" as="geometry" />
        </mxCell>
        <mxCell id="OGxI5YrdRo1SzFC3SW5r-9" value="1" style="text;html=1;align=center;verticalAlign=middle;resizable=0;points=[];autosize=1;" vertex="1" parent="1">
          <mxGeometry x="480" y="130" width="20" height="20" as="geometry" />
        </mxCell>
        <mxCell id="OGxI5YrdRo1SzFC3SW5r-10" value="&lt;u&gt;&lt;font style=&quot;font-size: 15px&quot;&gt;Bedingte Wahrscheinlichkeit&lt;/font&gt;&lt;/u&gt;" style="text;html=1;align=center;verticalAlign=middle;resizable=0;points=[];autosize=1;" vertex="1" parent="1">
          <mxGeometry x="200" y="20" width="200" height="20" as="geometry" />
        </mxCell>
        <mxCell id="OGxI5YrdRo1SzFC3SW5r-12" value="" style="endArrow=none;html=1;" edge="1" parent="1">
          <mxGeometry width="50" height="50" relative="1" as="geometry">
            <mxPoint x="215" y="165" as="sourcePoint" />
            <mxPoint x="225" y="165" as="targetPoint" />
          </mxGeometry>
        </mxCell>
        <mxCell id="OGxI5YrdRo1SzFC3SW5r-14" value="" style="endArrow=none;html=1;" edge="1" parent="1">
          <mxGeometry width="50" height="50" relative="1" as="geometry">
            <mxPoint x="305" y="190" as="sourcePoint" />
            <mxPoint x="315" y="190" as="targetPoint" />
            <Array as="points">
              <mxPoint x="315" y="190" />
            </Array>
          </mxGeometry>
        </mxCell>
        <mxCell id="OGxI5YrdRo1SzFC3SW5r-15" value="" style="endArrow=none;html=1;" edge="1" parent="1">
          <mxGeometry width="50" height="50" relative="1" as="geometry">
            <mxPoint x="305" y="120" as="sourcePoint" />
            <mxPoint x="315" y="120" as="targetPoint" />
          </mxGeometry>
        </mxCell>
      </root>
    </mxGraphModel>
  </diagram>
</mxfile>
